# Blender v2.69 (sub 0) OBJ File: ''
# www.blender.org
mtllib bigPlane.mtl
o Cube
v 118.764984 0.023953 -128.012344
v 118.764984 0.023953 -0.031992
v 0.056239 0.023953 -0.031992
v 0.056239 0.023953 -128.012344
v 118.764984 0.632611 -128.012344
v 118.764984 0.632611 -0.031991
v 0.056239 0.632611 -0.031992
v 0.056239 0.632611 -128.012344
vn 0.000000 -1.000000 0.000000
vn 0.000000 1.000000 0.000000
vn 1.000000 0.000000 0.000000
vn -0.000000 -0.000001 1.000000
vn -1.000000 -0.000000 -0.000000
vn 0.000000 0.000000 -1.000000
vn 1.000000 0.000002 0.000000
vn -0.000000 0.000000 1.000000
usemtl Material
s off
f 1//1 2//1 4//1
f 5//2 8//2 6//2
f 1//3 5//3 2//3
f 2//4 6//4 3//4
f 3//5 7//5 4//5
f 5//6 1//6 8//6
f 2//1 3//1 4//1
f 8//2 7//2 6//2
f 5//7 6//7 2//7
f 6//8 7//8 3//8
f 7//5 8//5 4//5
f 1//6 4//6 8//6
