# Blender v2.68 (sub 0) OBJ File: ''
# www.blender.org
mtllib texturedStar.mtl
o Cube.001
v -0.098455 -0.833245 0.545564
v -0.098455 -0.333245 1.545564
v -1.098455 -0.333245 1.545564
v -0.098455 2.166755 0.545564
v -1.098455 1.666755 0.545564
v -1.098455 1.666755 1.545564
v 1.401545 0.666755 0.545564
v 0.901545 1.666755 0.545565
v 0.901544 1.666755 1.545565
v -0.098455 0.666755 2.045564
v -0.098456 1.666755 1.545564
v -1.598455 0.666755 0.545564
v -1.098455 1.666755 -0.454436
v -0.098455 0.666756 -0.954436
v -0.098455 -0.333245 -0.454436
v -1.098455 -0.333245 -0.454436
v 0.901545 -0.333245 -0.454436
v 0.901545 -0.333245 0.545564
v 0.901545 -0.333245 1.545564
v 0.901545 1.666755 -0.454435
v -0.098455 1.666755 -0.454436
v 0.901545 0.666755 -0.454436
v 0.901545 0.666755 1.545564
v -1.098455 -0.333245 0.545564
v -1.098455 0.666755 1.545564
v -1.098455 0.666755 -0.454436
vt 0.610575 0.611640
vt 0.488513 0.502366
vt 0.586251 0.393190
vt 0.000088 0.764624
vt 0.097738 0.677205
vt 0.195475 0.786380
vt 0.219800 0.174740
vt 0.293125 0.305771
vt 0.195475 0.393190
vt 0.781550 0.612990
vt 0.890824 0.490928
vt 1.000000 0.588665
vt 0.219800 0.567931
vt 0.000000 0.568029
vt 0.610575 0.174740
vt 0.488513 0.284014
vt 0.390775 0.174839
vt 0.390863 0.371434
vt 0.488425 0.698961
vt 0.586075 0.786381
vt 0.390775 0.611542
vt 0.912581 0.097650
vt 0.781550 0.170975
vt 0.825161 0.000000
vt 1.000000 0.195299
vt 0.890824 0.293037
vt 0.781648 0.390775
vt 0.097650 0.087419
vt 0.000000 0.174839
vt 0.195300 0.000000
vt 0.293037 0.109176
vt 0.390775 0.218352
vt 0.390863 0.414947
vt 0.097738 0.284014
vt 0.000088 0.371434
vt 0.293037 0.502366
vt 0.195300 0.393190
vt 0.293125 0.698961
vt 0.978244 0.390687
vt 0.781550 0.218352
vt 0.683900 0.305771
vt 0.586250 0.393190
vt 0.683900 0.480610
vt 0.978243 0.393278
vt 0.912581 0.686315
vt 0.097650 0.480610
vt 0.488425 0.087419
vt 0.781550 0.568029
vt 0.781648 0.393190
vt 0.825162 0.783965
vt 0.586075 0.000000
vn 0.000000 -0.894427 0.447214
vn -0.447214 0.894427 0.000000
vn 0.894427 0.447214 0.000001
vn -0.000000 0.447213 0.894427
vn -0.894427 0.447214 0.000000
vn 0.000000 -0.447214 -0.894427
vn 0.000000 -0.894427 -0.447214
vn 0.447214 -0.894427 -0.000000
vn 0.447214 0.894427 0.000001
vn 0.000000 0.894427 -0.447213
vn 0.894427 -0.447214 -0.000000
vn 0.894427 0.000000 -0.447214
vn 0.894427 0.000001 -0.447214
vn 0.000000 -0.447214 0.894427
vn 0.447214 -0.000000 0.894427
vn 0.447214 -0.000001 0.894427
vn -0.894427 -0.447214 -0.000000
vn -0.894427 -0.000000 0.447214
vn 0.000000 0.447214 -0.894427
vn 0.447214 0.000001 -0.894427
vn 0.447214 0.000000 -0.894427
vn -0.447214 -0.894427 -0.000000
vn 0.000000 0.894427 0.447214
vn 0.894427 0.000000 0.447214
vn -0.447214 -0.000000 0.894427
vn -0.894427 0.000000 -0.447214
vn -0.447214 0.000000 -0.894427
vn 0.447214 0.894427 0.000000
vn 0.894427 0.447214 0.000000
vn -0.000001 0.447213 0.894427
vn 0.000001 0.447214 -0.894427
usemtl Material.001
s off
f 1/1/1 2/2/1 3/3/1
f 4/4/2 5/5/2 6/6/2
f 7/7/3 8/8/3 9/9/3
f 10/10/4 11/11/4 6/12/4
f 12/13/5 5/5/5 13/14/5
f 14/15/6 15/16/6 16/17/6
f 15/16/7 1/18/7 16/17/7
f 18/19/8 1/1/8 17/20/8
f 19/21/8 1/1/8 18/19/8
f 8/22/9 4/23/9 9/24/9
f 20/25/10 21/26/10 4/23/10
f 21/26/10 13/27/10 4/23/10
f 18/28/11 7/7/11 19/29/11
f 17/30/12 22/31/12 7/7/12
f 22/31/13 20/32/13 7/7/13
f 2/2/14 10/33/14 3/3/14
f 19/29/15 23/34/15 10/35/15
f 23/34/16 9/9/16 10/35/16
f 24/36/17 12/13/17 16/37/17
f 3/21/18 25/38/18 12/13/18
f 25/38/18 6/6/18 12/13/18
f 21/26/19 14/39/19 13/27/19
f 20/40/20 22/41/20 14/15/20
f 22/41/21 17/42/21 14/15/21
f 24/43/22 1/1/22 3/3/22
f 11/11/23 4/44/23 6/12/23
f 23/34/24 7/7/24 9/9/24
f 25/45/25 10/10/25 6/12/25
f 26/46/26 12/13/26 13/14/26
f 26/47/27 14/15/27 16/17/27
f 1/1/22 24/43/22 16/48/22
f 17/42/7 1/18/7 15/16/7
f 2/2/1 1/1/1 19/21/1
f 4/44/23 11/11/23 9/49/23
f 8/22/28 20/25/28 4/23/28
f 13/14/2 5/5/2 4/4/2
f 7/7/24 23/34/24 19/29/24
f 18/28/11 17/30/11 7/7/11
f 20/32/29 8/8/29 7/7/29
f 10/10/25 25/45/25 3/50/25
f 2/2/14 19/21/14 10/33/14
f 9/49/30 11/11/30 10/10/30
f 12/13/26 26/46/26 16/37/26
f 24/36/17 3/21/17 12/13/17
f 6/6/5 5/5/5 12/13/5
f 14/15/27 26/47/27 13/51/27
f 21/26/31 20/25/31 14/39/31
f 17/42/6 15/16/6 14/15/6
